<svg xmlns="http://www.w3.org/2000/svg" width="37" height="32" viewBox="0 0 37 32" fill="none">
  <path d="M4.89375 11.6644L0.5 18.9874V28.7016H31.3568V18.9874L26.9631 11.6644C26.4984 10.8899 25.6614 10.416 24.7581 10.416H7.09872C6.19548 10.416 5.35846 10.8899 4.89375 11.6644Z" fill="#B9C0C6"/>
  <path d="M6.07137 18.9878H0.5V28.9877C0.5 30.4079 1.65126 31.5591 3.07141 31.5591H28.7854C30.2056 31.5591 31.3568 30.4079 31.3568 28.9877V18.9878H25.7855C25.0754 18.9878 24.4998 19.5634 24.4998 20.2735V22.2735C24.4998 22.9836 23.9241 23.5592 23.2141 23.5592H8.64278C7.93271 23.5592 7.35708 22.9836 7.35708 22.2735V20.2735C7.35708 19.5634 6.78145 18.9878 6.07137 18.9878Z" fill="#F0F1F2"/>
  <path fill-rule="evenodd" clip-rule="evenodd" d="M26.3036 15.2911C31.9348 15.2911 36.4998 12.1817 36.4998 7.58938C36.4998 2.9971 31.9348 0 26.3036 0C20.6724 0 16.1074 2.9971 16.1074 7.58938C16.1074 10.131 17.5057 12.2184 19.7092 13.5758C19.9254 13.709 20.0754 13.9301 20.1049 14.1823L20.2746 15.6315C20.3246 16.0586 20.8077 16.2826 21.166 16.0447L22.6162 15.082C22.8012 14.9591 23.029 14.9208 23.246 14.9683C24.2112 15.1799 25.2383 15.2911 26.3036 15.2911Z" fill="#3A88F4"/>
  <ellipse cx="30.5506" cy="7.73007" rx="1.27426" ry="1.27426" fill="#E9F2FF"/>
  <ellipse cx="26.3006" cy="7.73093" rx="1.27426" ry="1.27426" fill="#E9F2FF"/>
  <ellipse cx="22.0555" cy="7.73007" rx="1.27426" ry="1.27426" fill="#E9F2FF"/>
</svg>