<svg xmlns="http://www.w3.org/2000/svg" width="30" height="30" viewBox="0 0 30 30" fill="none">
  <path fill-rule="evenodd" clip-rule="evenodd" d="M24.6594 9.17578C24.3211 8.92811 24.1745 8.46469 24.2947 8.06303C24.3843 7.76372 24.4324 7.44651 24.4324 7.11806C24.4324 5.30054 22.959 3.82715 21.1415 3.82715C20.2856 3.82715 19.5061 4.15388 18.9207 4.68941C18.6488 4.93823 18.2449 5.01928 17.91 4.86529C17.2535 4.56343 16.523 4.39511 15.753 4.39511C12.8982 4.39511 10.584 6.70937 10.584 9.56416C10.584 12.419 12.8982 14.7332 15.753 14.7332C16.6362 14.7332 17.4676 14.5117 18.1948 14.1213C18.6102 13.8983 19.1635 14.0441 19.4443 14.4229C20.126 15.3422 21.2192 15.938 22.4516 15.938C24.5179 15.938 26.193 14.2629 26.193 12.1966C26.193 10.956 25.5892 9.85647 24.6594 9.17578Z" fill="#42BC3C"/>
  <circle cx="6.27015" cy="12.3649" r="2.46351" fill="#E4604F"/>
  <circle cx="10.1309" cy="11.8473" r="2.98294" fill="#E4604F"/>
  <path d="M1.4375 14.776C1.4375 14.1063 1.98037 13.5635 2.65003 13.5635H27.3502C28.0198 13.5635 28.5627 14.1063 28.5627 14.776C28.5627 21.0708 23.4597 26.1738 17.1649 26.1738H12.8353C6.54045 26.1738 1.4375 21.0708 1.4375 14.776Z" fill="#E8EBED"/>
</svg>