<svg width="52" height="52" viewBox="0 0 52 52" fill="none" xmlns="http://www.w3.org/2000/svg">
<rect x="0.5" y="0.5" width="51" height="51" rx="6.5" fill="#F1F8FF" stroke="#E9F2FF"/>
<path fill-rule="evenodd" clip-rule="evenodd" d="M25.8131 14.6531C22.5782 14.6531 19.9559 17.2754 19.9559 20.5102C19.9559 23.7451 22.5782 26.3674 25.8131 26.3674C29.0479 26.3674 31.6702 23.7451 31.6702 20.5102C31.6702 17.2754 29.0479 14.6531 25.8131 14.6531ZM26.0001 27.1135C23.4505 27.1135 20.9848 28.0364 19.0203 29.7171C17.0566 31.397 15.7148 33.7296 15.2131 36.3155C15.1639 36.5696 15.2307 36.8323 15.3953 37.032C15.5599 37.2316 15.8052 37.3473 16.0639 37.3473H35.9363C36.1951 37.3473 36.4403 37.2316 36.605 37.032C36.7696 36.8323 36.8364 36.5696 36.7871 36.3155C36.2855 33.7296 34.9437 31.397 32.98 29.7171C31.0154 28.0364 28.5498 27.1135 26.0001 27.1135Z" fill="#ADCFFF"/>
</svg>
