<svg width="48" height="48" viewBox="0 0 48 48" fill="none" xmlns="http://www.w3.org/2000/svg">
<rect x="0.461538" y="0.461538" width="47.0769" height="47.0769" rx="6" fill="#F5F6F8" stroke="#F0F1F2" stroke-width="0.923077"/>
<path fill-rule="evenodd" clip-rule="evenodd" d="M23.8275 13.5259C20.8415 13.5259 18.4209 15.9465 18.4209 18.9325C18.4209 21.9185 20.8415 24.3391 23.8275 24.3391C26.8135 24.3391 29.2341 21.9185 29.2341 18.9325C29.2341 15.9465 26.8135 13.5259 23.8275 13.5259ZM24.0002 25.0278C21.6467 25.0278 19.3707 25.8797 17.5573 27.4311C15.7446 28.9818 14.5061 31.135 14.043 33.522C13.9975 33.7565 14.0591 33.9991 14.2111 34.1833C14.3631 34.3676 14.5895 34.4744 14.8283 34.4744H33.1721C33.4109 34.4744 33.6373 34.3676 33.7893 34.1833C33.9413 33.9991 34.0029 33.7565 33.9574 33.522C33.4943 31.135 32.2558 28.9818 30.4431 27.4311C28.6297 25.8797 26.3537 25.0278 24.0002 25.0278Z" fill="#CED3D9"/>
</svg>
