<svg xmlns="http://www.w3.org/2000/svg" width="30" height="31" viewBox="0 0 30 31" fill="none">
  <path d="M3.9834 14.7763C3.9834 8.9628 8.6962 4.25 14.5097 4.25C20.3233 4.25 25.0361 8.9628 25.0361 14.7763V22.576H3.9834V14.7763Z" fill="#FBB62D"/>
  <path d="M11.5034 17.785C11.5034 16.1253 12.8489 14.7798 14.5086 14.7798C16.1683 14.7798 17.5138 16.1253 17.5138 17.785V22.5808H11.5034V17.785Z" fill="#FDE3AF"/>
  <path d="M1.25 24.8043C1.25 23.5752 2.24638 22.5789 3.47547 22.5789H25.5424C26.7715 22.5789 27.7678 23.5752 27.7678 24.8043C27.7678 26.0334 26.7715 27.0298 25.5424 27.0298H3.47547C2.24638 27.0298 1.25 26.0334 1.25 24.8043Z" fill="#CED3D9"/>
</svg>