<svg width="52" height="28" viewBox="0 0 52 28" fill="none" xmlns="http://www.w3.org/2000/svg">
<path fill-rule="evenodd" clip-rule="evenodd" d="M20.1943 6.09146H1.60986V0H20.1943V6.09146Z" fill="#006EFA"/>
<path fill-rule="evenodd" clip-rule="evenodd" d="M9.75185 15.1252C11.0695 15.0681 12.4823 15.4462 13.4002 16.4429C13.8466 16.928 14.1352 17.5527 14.1352 18.2185C14.1352 19.9316 12.306 21.3204 10.0498 21.3204C7.12715 21.3204 5.48887 19.3581 4.85364 18.3069L0 22.1709C1.62631 25.5745 5.53343 27.9727 10.0951 27.9727C16.1161 27.9727 20.9976 23.7943 20.9976 18.6404C20.9976 14.9691 18.6024 11.7941 14.9906 10.2704L14.9627 10.2578L20.1948 6.09204H10.5813L3.31647 11.8765L6.3243 16.1685C6.3243 16.1685 7.71581 15.2143 9.75119 15.1259L9.75185 15.1252Z" fill="url(#paint0_linear_4_640)"/>
<path d="M25.8172 27.9727C27.3743 27.9727 28.6361 26.7188 28.6361 25.1725C28.6361 23.6262 27.3736 22.3723 25.8172 22.3723C24.2607 22.3723 22.9976 23.6262 22.9976 25.1725C22.9976 26.7188 24.26 27.9727 25.8172 27.9727Z" fill="#FFAA00"/>
<path fill-rule="evenodd" clip-rule="evenodd" d="M40.3881 15.1252C41.7058 15.0681 43.1185 15.4462 44.0365 16.4429C44.4828 16.928 44.7715 17.5527 44.7715 18.2185C44.7715 19.9316 42.9423 21.3204 40.6861 21.3204C37.7634 21.3204 36.1251 19.3581 35.4899 18.3069L30.6362 22.1709C32.2625 25.5745 36.1697 27.9727 40.7313 27.9727C46.7523 27.9727 51.6339 23.7943 51.6339 18.6404C51.6339 14.9691 49.2386 11.7941 45.6269 10.2704L45.5989 10.2578L50.831 6.09204H41.2175L33.9527 11.8765L36.9605 16.1685C36.9605 16.1685 38.352 15.2143 40.3874 15.1259L40.3881 15.1252Z" fill="url(#paint1_linear_4_640)"/>
<path fill-rule="evenodd" clip-rule="evenodd" d="M50.8305 6.09158H32.2461V0.00012207H50.8305V6.09158Z" fill="#006EFA"/>
<defs>
<linearGradient id="paint0_linear_4_640" x1="10.4988" y1="5.86146" x2="10.4988" y2="27.2165" gradientUnits="userSpaceOnUse">
<stop stop-color="#001E32"/>
<stop offset="0.1" stop-color="#002846"/>
<stop offset="0.26" stop-color="#003561"/>
<stop offset="0.39" stop-color="#003E72"/>
<stop offset="0.5" stop-color="#004178"/>
</linearGradient>
<linearGradient id="paint1_linear_4_640" x1="41.1357" y1="5.86146" x2="41.1357" y2="27.2165" gradientUnits="userSpaceOnUse">
<stop stop-color="#001E32"/>
<stop offset="0.1" stop-color="#002846"/>
<stop offset="0.26" stop-color="#003561"/>
<stop offset="0.39" stop-color="#003E72"/>
<stop offset="0.5" stop-color="#004178"/>
</linearGradient>
</defs>
</svg>
